PathFileType	4	(X/Y/Z)	24_2_63_p0_0-208.trc
DataRate	CameraRate	NumFrames	NumMarkers	Units	OrigDataRate	OrigDataStartFrame	OrigNumFrames
59.0	59.0	5	27	m	59.0	156	209
Frame#	Time	RHip			RKnee			RAnkle			RBigToe			RSmallToe			RHeel			LHip			LKnee			LAnkle			LBigToe			LSmallToe			LHeel			Neck			Head			Nose			RShoulder			RElbow			RWrist			RThumb			RIndex			RPinky			LShoulder			LElbow			LWrist			LThumb			LIndex			LPinky			
		X1	Y1	Z1	X2	Y2	Z2	X3	Y3	Z3	X4	Y4	Z4	X5	Y5	Z5	X6	Y6	Z6	X7	Y7	Z7	X8	Y8	Z8	X9	Y9	Z9	X10	Y10	Z10	X11	Y11	Z11	X12	Y12	Z12	X13	Y13	Z13	X14	Y14	Z14	X15	Y15	Z15	X16	Y16	Z16	X17	Y17	Z17	X18	Y18	Z18	X19	Y19	Z19	X20	Y20	Z20	X21	Y21	Z21	X22	Y22	Z22	X23	Y23	Z23	X24	Y24	Z24	X25	Y25	Z25	X26	Y26	Z26	X27	Y27	Z27	
156	2.6440677966101696	0.4525037130869694	0.5055290185673469	0.8256468290992044	0.44852156271634147	0.6160791781192182	1.3107024820108593	0.4261672400351655	0.6776072382334675	1.6909750718850252	0.4130452806324084	0.4738081933951396	1.6842833132570352	0.4615284756991384	0.5046199360573846	1.6826116861563736	0.4092563217970574	0.7475446997016498	1.7569744856210907	0.26151680166351676	0.4689321945968172	0.8515892175767774	0.21493392800121955	0.5851669930241908	1.3081778999048095	0.2192984778806242	0.6724078132249214	1.6884956851454498	0.2364398839684191	0.4815811432574276	1.6857868575096053	0.18167682640714605	0.5369476258534092	1.7059840583012735	0.22872618658874402	0.7414416786407367	1.7339320520855677	0.3416189774855431	0.457639969434986	0.35039400757681294	0.3562830786918387	0.38863209055126835	0.10784520381434488	0.3915728966212017	0.33238375786353264	0.2246482623907855	0.47875787098986466	0.4682057298395385	0.4061550944415846	0.6262202429338088	0.34222787259471105	0.4951224559032334	0.5945923252443798	0.22983171530713747	0.32780656513857637	0.5551688782445855	0.2142639865500479	0.23772257695900575	0.5615886843575517	0.20405108588291285	0.20783423563554831	0.5989310350405872	0.1912816533187071	0.23668913367650637	0.1906571151144843	0.46409197207646485	0.4456732284461318	0.12243227474555322	0.46338350808093975	0.6684792384512233	0.23914931300397604	0.34800405707636795	0.8481767719969645	0.33189656911189175	0.34898883693271954	0.91888501771349	0.32748521056483293	0.3596320995080317	0.9437332842219213	0.28220508803936045	0.34148751440916875	0.9479965849771654
157	2.6610169491525424	0.45293865094320157	0.5047709003771662	0.8292114714584975	0.44857805159496544	0.6162510070886322	1.3107213180149986	0.4287612481760186	0.6924075321588747	1.6970503821924277	0.4125107213988547	0.4708216379536696	1.679196841116076	0.4614919848063725	0.5046479741079588	1.6825577028426724	0.402802543421759	0.766648738578056	1.765953661266696	0.26216205710188073	0.4686167280780861	0.8478191864593813	0.21547182002716153	0.5842964034405836	1.312026016138812	0.2150659518005932	0.6698508631611089	1.687947922037838	0.23643947442707983	0.4817476487120401	1.6859114267637425	0.18184642618462568	0.5368351776710293	1.7060074010561195	0.22886533207465304	0.7400306788056403	1.738769724320217	0.3418684868551148	0.45722065083630475	0.34728187207205263	0.35218127137863287	0.3864783491589047	0.10513261398519946	0.38638667129750615	0.3444593068098339	0.22131848753372177	0.47850260478718554	0.4686120747301112	0.4029328172877267	0.6259113732411969	0.34295425140840824	0.4920479031217153	0.5946957449232656	0.22963240334788038	0.32445983797930966	0.5551861966577218	0.21449552881132833	0.23737202556529882	0.5617495537531744	0.20514940181437635	0.21002991754926073	0.5987487262675326	0.19116997088269627	0.2367562025025653	0.1907007627914055	0.4658780580862271	0.4494861048703832	0.12239064023760277	0.46339122429273033	0.6685133283217702	0.23921725587181147	0.34803879299643936	0.8481473330324475	0.33392572437674845	0.3601182857194439	0.9182591037527659	0.32763621602446	0.3600876837603832	0.9436519334006096	0.2806788994021465	0.35603780498586207	0.9516716633874703
158	2.6779661016949152	0.4554423110217903	0.5177346758063368	0.8238618402778186	0.45411714961107846	0.6012071555646671	1.3050267116749574	0.4259769341026255	0.6788990583914685	1.691115809011662	0.41357773071620096	0.46959555683002135	1.6749326521929517	0.4663548767913743	0.5068875589025524	1.6830329324907112	0.40157207661367583	0.7636659258480658	1.7600797164892463	0.26803244241690266	0.4561970406968099	0.8449704659147418	0.21545188350367658	0.5845178769943806	1.3121121705460501	0.21083032432767343	0.6671645581904339	1.6873129243345117	0.23647562160546756	0.48157014266226406	1.6857689160316076	0.18202807275120017	0.536569143753032	1.7058973901085712	0.2226474029284334	0.7351743099200777	1.7427327137887454	0.3417641034578145	0.4572188500549915	0.34716524082881073	0.35207550286898426	0.38643319510441543	0.10494370199830068	0.3808960885551722	0.3570354781000236	0.21777032364390617	0.47840732400597163	0.4684416057903716	0.4028317122773484	0.6264068393173265	0.34452155510718807	0.49560057539455865	0.5910828634144284	0.2285912622588194	0.3245414236378384	0.5550210123366534	0.21460942985835033	0.23728046826317256	0.5612602427629555	0.20412074384496948	0.20739200074189026	0.5951380637740977	0.19018472849611617	0.23668476527654697	0.1910057270036872	0.46529841364694113	0.4459363704831671	0.11574906527449969	0.47612458070601493	0.6704945439709239	0.24259681492819118	0.35055834583888024	0.8484306794634956	0.3338622239732914	0.36014788598175546	0.9180472683052614	0.3276687440313776	0.36024272075481467	0.9435563302073806	0.2825819353959622	0.36862444257294325	0.9545605222220446
159	2.694915254237288	0.4530727811507715	0.5052565351807201	0.8216592437900277	0.45367903249269803	0.6025766497467056	1.3013788383274782	0.42590746432311394	0.6789582914248858	1.691141403323412	0.4136289083948838	0.46979497959435845	1.675069262180999	0.4663996178732194	0.5073980864189178	1.683308036788129	0.4014384394125869	0.7634435768730963	1.7601612172140848	0.2621623759206509	0.4686532576703817	0.8476709127218823	0.21540136715799177	0.5843826378241269	1.3120144663422495	0.21073481495951482	0.6671999721173888	1.6874351610383862	0.23640864977673418	0.48132190242785655	1.6858680641188983	0.18185346885231132	0.536532480603563	1.7059665973417892	0.21807250946818893	0.7299138307944287	1.7406956131515299	0.33795736151477845	0.4559688242243285	0.34413122566155474	0.3520294588407776	0.38631205922022793	0.10504753036559047	0.37542201705084627	0.3679259472397573	0.21434211890867208	0.4785256367392651	0.46801552805305296	0.3987066675963449	0.6266724138283877	0.3439010162954051	0.49875095215351306	0.591091425673126	0.22838719050298573	0.32456124584222684	0.5551497112393613	0.21415794019572168	0.23711719246716126	0.5613264082903198	0.2038126765488431	0.2074733321351629	0.5928308567761305	0.1802984797373132	0.23991180133764614	0.1895055896527903	0.45278613758749064	0.4453850454523614	0.12224081677710405	0.4633241861606863	0.6686055094998654	0.23920931115020502	0.3479952739704065	0.8480881166754538	0.3339794215898133	0.3600383905158674	0.9182061371494825	0.3277490906430202	0.36030676477748963	0.9435427582949978	0.2825153494775171	0.36885443147142266	0.9545337454307872
160	2.711864406779661	0.4554225860095125	0.5179226780671674	0.8237716206559926	0.45366403424012636	0.6024488089836726	1.3014103061562996	0.42587129414804836	0.6785154911380681	1.690993466277506	0.4135634912436107	0.46950726542319265	1.6749474736462218	0.46639330593084843	0.507139180532035	1.6831486049831368	0.4014813142047533	0.7630253475660354	1.7600446116430766	0.26765103268254553	0.4570056324771907	0.841515716577541	0.21491482793962804	0.5817920557993962	1.3066180199254886	0.21075000755321252	0.6672567340967802	1.6874988640892405	0.23635748526387773	0.48136220263397533	1.6859165534323615	0.1818351129346822	0.5368886201707792	1.7063685350193385	0.22250562148650743	0.7350586549757545	1.7428434377178652	0.33216377941738323	0.46879764233843907	0.34795831498868857	0.3520424858114644	0.38611377333834734	0.10496749926132867	0.380922047796851	0.35692244961412517	0.22447410711678212	0.47840862219647495	0.46824662710130394	0.3987464387874864	0.6230254861837303	0.3428515536728774	0.49889685522180677	0.5910164138400157	0.22845456177583562	0.3244867057504989	0.555344618923633	0.21438869772098587	0.23699734740210632	0.5614417050311653	0.20407249581629128	0.20760593845448014	0.5918363239922133	0.18843332313788425	0.23979655044925943	0.1890932890203872	0.4530493281386857	0.4489394506287881	0.11557841817519615	0.47601326026585644	0.6705930259295413	0.24264716972671768	0.350565459893396	0.8484181496783336	0.33404945306346684	0.357639484322777	0.9172592876802667	0.32786324983414417	0.36024880343732063	0.9435019959936047	0.2881275861839068	0.3565629026047012	0.9511592389375756
